<svg width="89" height="51" viewBox="0 0 89 51" fill="none" xmlns="http://www.w3.org/2000/svg">
<path d="M34.36 51H17.28C11.4467 51 7.10667 49.8333 4.26 47.5C1.46 45.1667 0.0600001 41.5733 0.0600001 36.72V14.95C0.0600001 10.0967 1.46 6.50333 4.26 4.17C7.10667 1.79 11.4467 0.599998 17.28 0.599998H34.36C35.2467 0.599998 35.8767 0.809998 36.25 1.23C36.67 1.60333 36.88 2.23333 36.88 3.12V11.59C36.88 12.4767 36.67 13.13 36.25 13.55C35.8767 13.9233 35.2467 14.11 34.36 14.11H20.29C18.8433 14.11 17.77 14.4133 17.07 15.02C16.37 15.58 16.02 16.4433 16.02 17.61V34.27C16.02 35.4367 16.37 36.3 17.07 36.86C17.77 37.3733 18.8433 37.63 20.29 37.63H34.36C35.2467 37.63 35.8767 37.84 36.25 38.26C36.67 38.6333 36.88 39.2633 36.88 40.15V48.48C36.88 49.3667 36.67 50.02 36.25 50.44C35.8767 50.8133 35.2467 51 34.36 51ZM58.1551 51H47.3051C46.4184 51 45.7651 50.8133 45.3451 50.44C44.9717 50.02 44.7851 49.3667 44.7851 48.48V3.12C44.7851 2.23333 44.9717 1.60333 45.3451 1.23C45.7651 0.809998 46.4184 0.599998 47.3051 0.599998H58.1551C59.0417 0.599998 59.6717 0.809998 60.0451 1.23C60.4651 1.60333 60.6751 2.23333 60.6751 3.12V18.31H72.3651V3.12C72.3651 2.23333 72.5517 1.60333 72.9251 1.23C73.3451 0.809998 73.9984 0.599998 74.8851 0.599998H85.7351C86.6217 0.599998 87.2517 0.809998 87.6251 1.23C88.0451 1.60333 88.2551 2.23333 88.2551 3.12V48.48C88.2551 49.3667 88.0451 50.02 87.6251 50.44C87.2517 50.8133 86.6217 51 85.7351 51H74.8851C73.9984 51 73.3451 50.8133 72.9251 50.44C72.5517 50.02 72.3651 49.3667 72.3651 48.48V32.94H60.6751V48.48C60.6751 49.3667 60.4651 50.02 60.0451 50.44C59.6717 50.8133 59.0417 51 58.1551 51Z" fill="white"/>
</svg>
